<svg width="40" height="40" viewBox="0 0 40 40" fill="none" xmlns="http://www.w3.org/2000/svg">
<path d="M8.54248 8H10.6305C11.9265 8 12.9465 9.116 12.8385 10.4L11.8425 22.352C11.6745 24.308 13.2225 25.988 15.1905 25.988H27.9705C29.6985 25.988 31.2105 24.572 31.3425 22.856L31.9905 13.856C32.1345 11.864 30.6225 10.244 28.6185 10.244H13.1265" stroke="#000001" stroke-width="1.5" stroke-miterlimit="10" stroke-linecap="round" stroke-linejoin="round"/>
<path d="M25.6425 32C26.4709 32 27.1425 31.3284 27.1425 30.5C27.1425 29.6716 26.4709 29 25.6425 29C24.8141 29 24.1425 29.6716 24.1425 30.5C24.1425 31.3284 24.8141 32 25.6425 32Z" stroke="#000001" stroke-width="1.5" stroke-miterlimit="10" stroke-linecap="round" stroke-linejoin="round"/>
<path d="M16.0425 32C16.8709 32 17.5425 31.3284 17.5425 30.5C17.5425 29.6716 16.8709 29 16.0425 29C15.2141 29 14.5425 29.6716 14.5425 30.5C14.5425 31.3284 15.2141 32 16.0425 32Z" stroke="#000001" stroke-width="1.5" stroke-miterlimit="10" stroke-linecap="round" stroke-linejoin="round"/>
<path d="M16.9425 15.2H31.3425" stroke="#000001" stroke-width="1.5" stroke-miterlimit="10" stroke-linecap="round" stroke-linejoin="round"/>
</svg>
