<svg width="141" height="34" viewBox="0 0 141 34" fill="none" xmlns="http://www.w3.org/2000/svg">
<path d="M18.24 13.6C18.24 15.776 17.552 17.664 16.176 19.264L17.904 21.064L15.552 23.152L13.728 21.256C12.432 21.976 11.024 22.336 9.504 22.336C7.088 22.336 5.032 21.496 3.336 19.816C1.64 18.12 0.792 16.048 0.792 13.6C0.792 11.152 1.64 9.088 3.336 7.408C5.032 5.712 7.088 4.864 9.504 4.864C11.92 4.864 13.976 5.712 15.672 7.408C17.384 9.088 18.24 11.152 18.24 13.6ZM9.504 19.096C10.128 19.096 10.752 18.992 11.376 18.784L8.616 15.904L10.968 13.816L13.92 16.888C14.592 15.928 14.928 14.832 14.928 13.6C14.928 12 14.408 10.68 13.368 9.64C12.328 8.6 11.04 8.08 9.504 8.08C7.968 8.08 6.68 8.6 5.64 9.64C4.6 10.68 4.08 12 4.08 13.6C4.08 15.184 4.6 16.496 5.64 17.536C6.68 18.576 7.968 19.096 9.504 19.096ZM26.8318 22.336C24.9598 22.336 23.4238 21.808 22.2238 20.752C21.0238 19.696 20.4238 18.28 20.4238 16.504V5.2H23.7118V16.24C23.7118 17.12 23.9598 17.816 24.4558 18.328C24.9678 18.84 25.7598 19.096 26.8318 19.096C27.9038 19.096 28.6878 18.84 29.1838 18.328C29.6958 17.816 29.9518 17.12 29.9518 16.24V5.2H33.2638V16.504C33.2638 18.28 32.6638 19.696 31.4638 20.752C30.2638 21.808 28.7198 22.336 26.8318 22.336ZM36.2475 5.2H39.5595V22H36.2475V5.2ZM50.6374 22.336C48.1094 22.336 46.0214 21.496 44.3734 19.816C42.7254 18.136 41.9014 16.064 41.9014 13.6C41.9014 11.12 42.7254 9.048 44.3734 7.384C46.0214 5.704 48.1094 4.864 50.6374 4.864C52.1574 4.864 53.5574 5.224 54.8374 5.944C56.1334 6.648 57.1414 7.608 57.8614 8.824L55.0054 10.48C54.5894 9.728 53.9974 9.144 53.2294 8.728C52.4614 8.296 51.5974 8.08 50.6374 8.08C49.0054 8.08 47.6854 8.592 46.6774 9.616C45.6854 10.64 45.1894 11.968 45.1894 13.6C45.1894 15.216 45.6854 16.536 46.6774 17.56C47.6854 18.584 49.0054 19.096 50.6374 19.096C51.5974 19.096 52.4614 18.888 53.2294 18.472C54.0134 18.04 54.6054 17.456 55.0054 16.72L57.8614 18.376C57.1414 19.592 56.1414 20.56 54.8614 21.28C53.5814 21.984 52.1734 22.336 50.6374 22.336ZM73.0239 22H69.2079L63.2079 14.128V22H59.8959V5.2H63.2079V12.616L68.9679 5.2H72.7839L66.5679 13.36L73.0239 22ZM84.6936 8.368H77.9736V12.352H84.5016V15.52H77.9736V22H74.6616V5.2H84.6936V8.368ZM101.243 19.816C99.5469 21.496 97.4829 22.336 95.0509 22.336C92.6189 22.336 90.5549 21.496 88.8589 19.816C87.1789 18.12 86.3389 16.048 86.3389 13.6C86.3389 11.152 87.1789 9.088 88.8589 7.408C90.5549 5.712 92.6189 4.864 95.0509 4.864C97.4829 4.864 99.5469 5.712 101.243 7.408C102.939 9.088 103.787 11.152 103.787 13.6C103.787 16.048 102.939 18.12 101.243 19.816ZM91.1869 17.56C92.2269 18.584 93.5149 19.096 95.0509 19.096C96.5869 19.096 97.8749 18.584 98.9149 17.56C99.9549 16.52 100.475 15.2 100.475 13.6C100.475 12 99.9549 10.68 98.9149 9.64C97.8749 8.6 96.5869 8.08 95.0509 8.08C93.5149 8.08 92.2269 8.6 91.1869 9.64C90.1469 10.68 89.6269 12 89.6269 13.6C89.6269 15.2 90.1469 16.52 91.1869 17.56ZM120.251 19.816C118.555 21.496 116.491 22.336 114.059 22.336C111.627 22.336 109.563 21.496 107.867 19.816C106.187 18.12 105.347 16.048 105.347 13.6C105.347 11.152 106.187 9.088 107.867 7.408C109.563 5.712 111.627 4.864 114.059 4.864C116.491 4.864 118.555 5.712 120.251 7.408C121.947 9.088 122.795 11.152 122.795 13.6C122.795 16.048 121.947 18.12 120.251 19.816ZM110.195 17.56C111.235 18.584 112.523 19.096 114.059 19.096C115.595 19.096 116.883 18.584 117.923 17.56C118.963 16.52 119.483 15.2 119.483 13.6C119.483 12 118.963 10.68 117.923 9.64C116.883 8.6 115.595 8.08 114.059 8.08C112.523 8.08 111.235 8.6 110.195 9.64C109.155 10.68 108.635 12 108.635 13.6C108.635 15.2 109.155 16.52 110.195 17.56ZM131.795 5.2C134.099 5.2 136.019 6.008 137.555 7.624C139.107 9.24 139.883 11.232 139.883 13.6C139.883 15.968 139.107 17.96 137.555 19.576C136.019 21.192 134.099 22 131.795 22H125.123V5.2H131.795ZM131.795 18.832C133.251 18.832 134.435 18.352 135.347 17.392C136.259 16.416 136.715 15.152 136.715 13.6C136.715 12.048 136.259 10.792 135.347 9.832C134.435 8.856 133.251 8.368 131.795 8.368H128.435V18.832H131.795Z" fill="#00A000"/>
<rect y="32" width="141" height="2" fill="#00A000"/>
</svg>
