<svg width="26" height="26" viewBox="0 0 26 26" fill="none" xmlns="http://www.w3.org/2000/svg">
<path d="M1.54248 1H3.63049C4.92649 1 5.94648 2.116 5.83848 3.4L4.84248 15.352C4.67448 17.308 6.22247 18.988 8.19047 18.988H20.9705C22.6985 18.988 24.2105 17.572 24.3425 15.856L24.9905 6.85601C25.1345 4.86401 23.6225 3.24399 21.6185 3.24399H6.12649" stroke="#000001" stroke-width="1.5" stroke-miterlimit="10" stroke-linecap="round" stroke-linejoin="round"/>
<path d="M18.6425 25C19.4709 25 20.1425 24.3284 20.1425 23.5C20.1425 22.6716 19.4709 22 18.6425 22C17.8141 22 17.1425 22.6716 17.1425 23.5C17.1425 24.3284 17.8141 25 18.6425 25Z" stroke="#000001" stroke-width="1.5" stroke-miterlimit="10" stroke-linecap="round" stroke-linejoin="round"/>
<path d="M9.04248 25C9.87091 25 10.5425 24.3284 10.5425 23.5C10.5425 22.6716 9.87091 22 9.04248 22C8.21405 22 7.54248 22.6716 7.54248 23.5C7.54248 24.3284 8.21405 25 9.04248 25Z" stroke="#000001" stroke-width="1.5" stroke-miterlimit="10" stroke-linecap="round" stroke-linejoin="round"/>
<path d="M9.94247 8.20001H24.3425" stroke="#000001" stroke-width="1.5" stroke-miterlimit="10" stroke-linecap="round" stroke-linejoin="round"/>
</svg>
